<svg xmlns="http://www.w3.org/2000/svg" xmlns:xlink="http://www.w3.org/1999/xlink" version="1.1" width="1000" height="1000" viewBox="0 0 1000 1000" xml:space="preserve">
<desc>Created with Fabric.js 3.5.0</desc>
<defs>
</defs>
<rect x="0" y="0" width="100%" height="100%" fill="rgba(255,255,255,0)"/>
<g transform="matrix(7.1023 0 0 7.1023 500.0017 500.0017)" id="501472">
<g style="" vector-effect="non-scaling-stroke">
		<g transform="matrix(1.2124 0 0 1.2124 -0.883 -0.0611)" id="icon-0">
<path style="stroke: none; stroke-width: 1; stroke-dasharray: none; stroke-linecap: butt; stroke-dashoffset: 0; stroke-linejoin: miter; stroke-miterlimit: 4; is-custom-font: none; font-file-url: none; fill: rgb(0,0,0); fill-rule: nonzero; opacity: 1;" transform=" translate(-49.1771, -48.7502)" d="M 89.613 48.892 L 52.229 7.617 A 3.5 3.5 0 0 0 47.103 7.617 L 8.511 49.117 A 3.5 3.5 0 0 0 7.865 52.899 A 3.5 3.5 0 0 0 11.074 55 H 21 V 85 C 21 88.313 23.592 91 26.906 91 H 34 A 4 4 0 0 0 38 87 V 72 A 4 4 0 0 1 42 68 H 56 A 4 4 0 0 1 60 72 V 87 A 4 4 0 0 0 64 91 H 70.905 C 74.219 91 77 88.313 77 85 V 55 H 87.279 A 3.499 3.499 0 0 0 89.613 48.892" stroke-linecap="round"/>
</g>
		<g transform="matrix(1.0729 0 0 1.0729 -0.8857 -0.0639)" id="tight-bounds">
<rect style="stroke: none; stroke-width: 1; stroke-dasharray: none; stroke-linecap: butt; stroke-dashoffset: 0; stroke-linejoin: miter; stroke-miterlimit: 4; is-custom-font: none; font-file-url: none; fill: none; fill-rule: nonzero; opacity: 1;" x="-47.0103" y="-47.7405" rx="0" ry="0" width="94.0206" height="95.481"/>
</g>
</g>
</g>
</svg>