<svg width="24" height="25" viewBox="0 0 24 25" fill="none" xmlns="http://www.w3.org/2000/svg">
<g clip-path="url(#clip0_477_143)">
<path d="M23.5971 11.0994L19.9598 7.46207V3.26036C19.9598 2.50063 19.3442 1.88493 18.5833 1.88493C17.8242 1.88493 17.2086 2.50063 17.2086 3.26036V4.71088L14.5003 2.00251C13.1613 0.66424 10.8333 0.666614 9.49731 2.00493L0.402658 11.0994C-0.134219 11.6373 -0.134219 12.5078 0.402658 13.0449C0.939778 13.5827 1.8119 13.5827 2.34883 13.0449L11.4426 3.95018C11.7389 3.65548 12.261 3.65548 12.5557 3.94931L21.651 13.0449C21.9207 13.3138 22.2723 13.4476 22.6239 13.4476C22.9761 13.4476 23.3283 13.3137 23.5972 13.0449C24.1343 12.5078 24.1343 11.6374 23.5971 11.0994Z" fill="white"/>
<path d="M12.4778 6.56134C12.2136 6.29726 11.7857 6.29726 11.5223 6.56134L3.52261 14.5586C3.39631 14.6849 3.32471 14.8573 3.32471 15.0371V20.8701C3.32471 22.2388 4.43451 23.3486 5.8032 23.3486H9.76384V17.2148H14.2354V23.3486H18.196C19.5647 23.3486 20.6745 22.2388 20.6745 20.8701V15.0371C20.6745 14.8573 20.6035 14.6849 20.4766 14.5586L12.4778 6.56134Z" fill="white"/>
</g>
<defs>
<clipPath id="clip0_477_143">
<rect width="24" height="24.3483" fill="white"/>
</clipPath>
</defs>
</svg>
