<svg xmlns="http://www.w3.org/2000/svg" version="1.1" xmlns:xlink="http://www.w3.org/1999/xlink" xmlns:svgjs="http://svgjs.dev/svgjs" width="2000" height="2000" viewBox="0 0 2000 2000"><g transform="matrix(1,0,0,1,-0.28443113772425477,-0.28443113772459583)"><svg viewBox="0 0 334 334" data-background-color="#ffffff" preserveAspectRatio="xMidYMid meet" height="2000" width="2000" xmlns="http://www.w3.org/2000/svg" xmlns:xlink="http://www.w3.org/1999/xlink"><g id="tight-bounds" transform="matrix(1,0,0,1,0.04749999999998522,0.04750000000001364)"><svg viewBox="0 0 333.90454557049503 333.90454557049503" height="333.90454557049503" width="333.90454557049503"><g><svg></svg></g><g><svg viewBox="0 0 333.90454557049503 333.90454557049503" height="333.90454557049503" width="333.90454557049503"><g><path d="M0 166.952c0-92.205 74.747-166.952 166.952-166.952 92.205 0 166.952 74.747 166.953 166.952 0 92.205-74.747 166.952-166.953 166.953-92.205 0-166.952-74.747-166.952-166.953zM166.952 331.402c90.823 0 164.45-73.627 164.45-164.45 0-90.823-73.627-164.45-164.45-164.45-90.823 0-164.45 73.627-164.45 164.45 0 90.823 73.627 164.45 164.45 164.45z" data-fill-palette-color="tertiary" fill="#012865" stroke="transparent"></path><ellipse rx="160.27418187383762" ry="160.27418187383762" cx="166.95227278524752" cy="166.95227278524752" fill="#012865" stroke="transparent" stroke-width="0" fill-opacity="1" data-fill-palette-color="tertiary"></ellipse></g><g transform="matrix(1,0,0,1,99.18293095227259,71.17305217166896)"><svg viewBox="0 0 135.53868366594986 191.55844122715712" height="191.55844122715712" width="135.53868366594986"><g><svg viewBox="0 0 135.53868366594986 191.55844122715712" height="191.55844122715712" width="135.53868366594986"><g><svg viewBox="0 0 238.43476918787346 336.98270843883324" height="191.55844122715712" width="135.53868366594986"><g transform="matrix(1,0,0,1,12.638163980358172,232.24875728659097)"><svg viewBox="0 0 213.1584412271571 104.73395115224228" height="104.73395115224228" width="213.1584412271571"><g id="textblocktransform"><svg viewBox="0 0 213.1584412271571 104.73395115224228" height="104.73395115224228" width="213.1584412271571" id="textblock"><g><svg viewBox="0 0 213.1584412271571 104.73395115224228" height="104.73395115224228" width="213.1584412271571"><g transform="matrix(1,0,0,1,0,0)"><svg width="213.1584412271571" viewBox="93.86 -38.57 179.76 88.74" height="104.73395115224228" data-palette-color="#ffffff"><svg></svg><svg></svg><g class="wordmark-text-0" data-fill-palette-color="quaternary" id="text-0"><path transform="translate(103.09,0)" d="M35.91-26.44v0l-4.17 1.76c-0.327-1.06-0.763-2.03-1.31-2.91-0.547-0.88-1.197-1.633-1.95-2.26-0.76-0.627-1.62-1.113-2.58-1.46-0.96-0.353-2.01-0.53-3.15-0.53v0c-1.22 0-2.337 0.203-3.35 0.61-1.02 0.407-1.933 0.957-2.74 1.65-0.807 0.693-1.51 1.503-2.11 2.43-0.6 0.927-1.1 1.917-1.5 2.97-0.4 1.047-0.7 2.133-0.9 3.26-0.207 1.12-0.31 2.217-0.31 3.29v0c0 1.713 0.2 3.417 0.6 5.11 0.4 1.687 1.033 3.207 1.9 4.56 0.873 1.353 2 2.447 3.38 3.28 1.387 0.84 3.063 1.26 5.03 1.26v0c1.08 0 1.92-0.24 2.52-0.72 0.6-0.48 0.9-1.323 0.9-2.53v0-10.79h9.69v17.46h-2.8l-1.71-2.76c-1.567 1.187-3.29 2.063-5.17 2.63-1.88 0.56-3.797 0.84-5.75 0.84v0c-1.72 0-3.373-0.213-4.96-0.64-1.587-0.42-3.063-1.02-4.43-1.8-1.373-0.787-2.617-1.733-3.73-2.84-1.113-1.107-2.063-2.333-2.85-3.68-0.793-1.353-1.407-2.823-1.84-4.41-0.427-1.587-0.64-3.243-0.64-4.97v0c0-1.72 0.213-3.377 0.64-4.97 0.433-1.587 1.047-3.057 1.84-4.41 0.787-1.36 1.737-2.593 2.85-3.7 1.113-1.107 2.357-2.05 3.73-2.83 1.367-0.787 2.843-1.39 4.43-1.81 1.587-0.427 3.24-0.64 4.96-0.64v0c1.66 0 3.287 0.197 4.88 0.59 1.587 0.393 3.063 0.983 4.43 1.77 1.367 0.787 2.583 1.78 3.65 2.98 1.067 1.193 1.907 2.597 2.52 4.21zM65.89-25.71v0l-4.64 7.69c-0.193-0.647-0.443-1.377-0.75-2.19-0.313-0.82-0.697-1.583-1.15-2.29-0.453-0.707-1-1.3-1.64-1.78-0.633-0.48-1.363-0.72-2.19-0.72v0c-0.767 0-1.43 0.197-1.99 0.59-0.56 0.387-1.037 0.893-1.43 1.52-0.393 0.627-0.713 1.337-0.96 2.13-0.253 0.787-0.45 1.583-0.59 2.39-0.14 0.807-0.233 1.58-0.28 2.32-0.047 0.74-0.07 1.377-0.07 1.91v0 14.14h-8.28v-28.2h3.17l3.35 6.57c0.453-1.06 0.973-2.033 1.56-2.92 0.587-0.887 1.263-1.65 2.03-2.29 0.76-0.647 1.627-1.147 2.6-1.5 0.967-0.36 2.06-0.54 3.28-0.54v0c0.633 0 1.34 0.053 2.12 0.16 0.787 0.107 1.553 0.283 2.3 0.53 0.747 0.253 1.437 0.583 2.07 0.99 0.64 0.407 1.137 0.903 1.49 1.49zM75.39-13.38v0c1.007 0.227 2.017 0.407 3.03 0.54 1.007 0.127 2.023 0.19 3.05 0.19v0c1.073 0 2.07-0.1 2.99-0.3 0.92-0.207 1.717-0.55 2.39-1.03 0.68-0.48 1.213-1.117 1.6-1.91 0.393-0.8 0.59-1.793 0.59-2.98v0c0-0.96-0.13-1.84-0.39-2.64-0.26-0.8-0.647-1.483-1.16-2.05-0.513-0.567-1.143-1.01-1.89-1.33-0.753-0.32-1.627-0.48-2.62-0.48v0c-0.927 0-1.76 0.173-2.5 0.52-0.74 0.34-1.39 0.8-1.95 1.38-0.56 0.573-1.04 1.243-1.44 2.01-0.4 0.767-0.73 1.563-0.99 2.39-0.26 0.833-0.447 1.673-0.56 2.52-0.113 0.847-0.17 1.643-0.17 2.39v0c0 0.133 0 0.263 0 0.39 0 0.133 0.007 0.263 0.02 0.39zM95.73-18.95v0c0 1.16-0.187 2.19-0.56 3.09-0.38 0.907-0.89 1.7-1.53 2.38-0.64 0.687-1.383 1.267-2.23 1.74-0.847 0.467-1.75 0.853-2.71 1.16-0.96 0.3-1.95 0.513-2.97 0.64-1.02 0.133-2.01 0.2-2.97 0.2v0c-1.22 0-2.423-0.087-3.61-0.26-1.187-0.167-2.36-0.44-3.52-0.82v0c0.18 1.08 0.467 2.103 0.86 3.07 0.393 0.967 0.913 1.813 1.56 2.54 0.653 0.72 1.457 1.293 2.41 1.72 0.947 0.42 2.073 0.63 3.38 0.63v0c0.86 0 1.68-0.13 2.46-0.39 0.787-0.26 1.503-0.627 2.15-1.1 0.653-0.467 1.227-1.027 1.72-1.68 0.5-0.653 0.903-1.377 1.21-2.17v0l3.57 1.32c-0.54 1.28-1.277 2.39-2.21 3.33-0.94 0.933-2 1.707-3.18 2.32-1.18 0.607-2.433 1.057-3.76 1.35-1.327 0.293-2.64 0.44-3.94 0.44v0c-2.147 0-4.133-0.36-5.96-1.08-1.82-0.727-3.39-1.74-4.71-3.04-1.32-1.307-2.353-2.863-3.1-4.67-0.747-1.807-1.12-3.783-1.12-5.93v0c0-2.147 0.373-4.123 1.12-5.93 0.747-1.807 1.78-3.363 3.1-4.67 1.32-1.3 2.89-2.313 4.71-3.04 1.827-0.72 3.813-1.08 5.96-1.08v0c1.04 0 2.107 0.073 3.2 0.22 1.087 0.147 2.143 0.377 3.17 0.69 1.027 0.32 1.997 0.733 2.91 1.24 0.907 0.5 1.7 1.12 2.38 1.86 0.673 0.747 1.21 1.607 1.61 2.58 0.4 0.973 0.6 2.087 0.6 3.34zM129.27-28.2v28.2h-8.25v-3.37c-0.973 1.333-2.15 2.323-3.53 2.97-1.373 0.64-2.883 0.96-4.53 0.96v0c-2.147 0-4.067-0.383-5.76-1.15-1.693-0.76-3.123-1.803-4.29-3.13-1.173-1.327-2.07-2.887-2.69-4.68-0.62-1.787-0.93-3.707-0.93-5.76v0c0-2.053 0.31-3.973 0.93-5.76 0.62-1.793 1.517-3.353 2.69-4.68 1.167-1.327 2.597-2.37 4.29-3.13 1.693-0.767 3.613-1.15 5.76-1.15v0c1.093 0 2.133 0.163 3.12 0.49 0.98 0.32 1.883 0.78 2.71 1.38 0.82 0.593 1.543 1.307 2.17 2.14 0.627 0.84 1.12 1.773 1.48 2.8v0l3.66-6.13zM120.97-14.16v0c0-0.733-0.037-1.507-0.11-2.32-0.073-0.813-0.2-1.62-0.38-2.42-0.18-0.793-0.427-1.553-0.74-2.28-0.32-0.727-0.727-1.37-1.22-1.93-0.5-0.56-1.1-1.003-1.8-1.33-0.7-0.327-1.513-0.49-2.44-0.49v0c-0.927 0-1.73 0.167-2.41 0.5-0.687 0.333-1.273 0.783-1.76 1.35-0.487 0.56-0.89 1.207-1.21 1.94-0.32 0.733-0.57 1.497-0.75 2.29-0.173 0.8-0.297 1.603-0.37 2.41-0.073 0.807-0.11 1.567-0.11 2.28v0c0 0.713 0.037 1.477 0.11 2.29 0.073 0.82 0.197 1.627 0.37 2.42 0.18 0.8 0.43 1.567 0.75 2.3 0.32 0.733 0.723 1.38 1.21 1.94 0.487 0.56 1.073 1.007 1.76 1.34 0.68 0.333 1.483 0.5 2.41 0.5v0c0.847 0 1.6-0.173 2.26-0.52 0.66-0.353 1.237-0.823 1.73-1.41 0.5-0.587 0.92-1.253 1.26-2 0.34-0.747 0.617-1.52 0.83-2.32 0.213-0.8 0.37-1.593 0.47-2.38 0.093-0.787 0.14-1.507 0.14-2.16zM146.78-24.93v24.93h-8.28v-24.93h-5.13v-3.27h5.13v-10.37h8.28v10.37h8.54v3.27z" fill="#ffffff" fill-rule="nonzero" stroke="none" stroke-width="1" stroke-linecap="butt" stroke-linejoin="miter" stroke-miterlimit="10" stroke-dasharray="" stroke-dashoffset="0" font-family="none" font-weight="none" font-size="none" text-anchor="none" style="mix-blend-mode: normal" data-fill-palette-color="quaternary" opacity="1"></path><path transform="translate(89.88,44.16)" d="M13.67-15.33v15.33h-9.69v-35.16h9.69v15.36h12.84v-15.36h9.7v35.16h-9.7v-15.33zM72.88-14.16v0c0 1.467-0.197 2.843-0.59 4.13-0.393 1.28-0.933 2.467-1.62 3.56-0.693 1.093-1.53 2.073-2.51 2.94-0.973 0.873-2.043 1.61-3.21 2.21-1.16 0.6-2.403 1.063-3.73 1.39-1.327 0.327-2.69 0.49-4.09 0.49v0c-1.4 0-2.76-0.163-4.08-0.49-1.32-0.327-2.56-0.79-3.72-1.39-1.167-0.6-2.237-1.337-3.21-2.21-0.98-0.867-1.813-1.847-2.5-2.94-0.693-1.093-1.237-2.287-1.63-3.58-0.387-1.293-0.58-2.663-0.58-4.11v0c0-1.447 0.193-2.817 0.58-4.11 0.393-1.293 0.937-2.487 1.63-3.58 0.687-1.093 1.52-2.073 2.5-2.94 0.973-0.873 2.043-1.61 3.21-2.21 1.16-0.607 2.4-1.07 3.72-1.39 1.32-0.327 2.68-0.49 4.08-0.49v0c1.4 0 2.763 0.163 4.09 0.49 1.327 0.32 2.57 0.783 3.73 1.39 1.167 0.6 2.237 1.337 3.21 2.21 0.98 0.867 1.817 1.847 2.51 2.94 0.687 1.093 1.227 2.287 1.62 3.58 0.393 1.293 0.59 2.663 0.59 4.11zM64.48-14.16v0c0-0.78-0.047-1.607-0.14-2.48-0.087-0.867-0.237-1.72-0.45-2.56-0.213-0.84-0.503-1.647-0.87-2.42-0.36-0.773-0.81-1.45-1.35-2.03-0.54-0.573-1.183-1.037-1.93-1.39-0.747-0.347-1.617-0.52-2.61-0.52v0c-0.947 0-1.787 0.18-2.52 0.54-0.727 0.353-1.363 0.827-1.91 1.42-0.547 0.593-1.003 1.283-1.37 2.07-0.367 0.78-0.663 1.59-0.89 2.43-0.227 0.833-0.39 1.68-0.49 2.54-0.1 0.853-0.15 1.653-0.15 2.4v0c0 0.747 0.05 1.547 0.15 2.4 0.1 0.86 0.263 1.713 0.49 2.56 0.227 0.847 0.523 1.657 0.89 2.43 0.367 0.767 0.823 1.45 1.37 2.05 0.547 0.593 1.183 1.067 1.91 1.42 0.733 0.36 1.573 0.54 2.52 0.54v0c0.973 0 1.837-0.173 2.59-0.52 0.747-0.353 1.393-0.823 1.94-1.41 0.547-0.587 0.997-1.26 1.35-2.02 0.36-0.767 0.65-1.573 0.87-2.42 0.22-0.847 0.373-1.7 0.46-2.56 0.093-0.867 0.14-1.69 0.14-2.47zM121.7-16.46v0c0 1.94-0.227 3.96-0.68 6.06-0.453 2.1-1.093 4.147-1.92 6.14-0.82 1.993-1.807 3.877-2.96 5.65-1.16 1.773-2.447 3.313-3.86 4.62v0l-3.1-1.69c0.473-0.847 0.903-1.8 1.29-2.86 0.393-1.053 0.753-2.167 1.08-3.34 0.327-1.173 0.61-2.377 0.85-3.61 0.247-1.24 0.453-2.473 0.62-3.7 0.173-1.233 0.3-2.427 0.38-3.58 0.087-1.153 0.13-2.237 0.13-3.25v0c0-0.567-0.017-1.183-0.05-1.85-0.033-0.667-0.103-1.333-0.21-2-0.107-0.667-0.267-1.307-0.48-1.92-0.207-0.613-0.493-1.16-0.86-1.64-0.367-0.48-0.823-0.86-1.37-1.14-0.547-0.287-1.203-0.43-1.97-0.43v0c-0.747 0-1.383 0.2-1.91 0.6-0.533 0.4-0.987 0.917-1.36 1.55-0.373 0.633-0.67 1.35-0.89 2.15-0.22 0.793-0.387 1.593-0.5 2.4-0.113 0.807-0.19 1.577-0.23 2.31-0.04 0.733-0.06 1.35-0.06 1.85v0 14.14h-8.23v-13.13c0-0.573 0.007-1.263 0.02-2.07 0.02-0.807 0-1.647-0.06-2.52-0.053-0.88-0.157-1.757-0.31-2.63-0.16-0.873-0.407-1.65-0.74-2.33-0.333-0.687-0.783-1.243-1.35-1.67-0.573-0.433-1.29-0.65-2.15-0.65v0c-0.733 0-1.347 0.203-1.84 0.61-0.5 0.407-0.917 0.933-1.25 1.58-0.333 0.64-0.593 1.363-0.78 2.17-0.187 0.807-0.323 1.61-0.41 2.41-0.093 0.807-0.147 1.573-0.16 2.3-0.02 0.727-0.03 1.323-0.03 1.79v0 14.14h-8.27v-28.2h3.17l3.03 6.57c0.68-2.28 1.757-4.06 3.23-5.34 1.473-1.273 3.43-1.91 5.87-1.91v0c2.2 0 4.023 0.457 5.47 1.37 1.453 0.907 2.593 2.387 3.42 4.44v0c0.473-0.893 1-1.7 1.58-2.42 0.573-0.713 1.213-1.323 1.92-1.83 0.713-0.507 1.5-0.893 2.36-1.16 0.86-0.267 1.813-0.4 2.86-0.4v0c1.92 0 3.56 0.313 4.92 0.94 1.353 0.627 2.463 1.493 3.33 2.6 0.86 1.107 1.487 2.42 1.88 3.94 0.387 1.52 0.58 3.167 0.58 4.94zM133.98-13.38v0c1.013 0.227 2.023 0.407 3.03 0.54 1.013 0.127 2.03 0.19 3.05 0.19v0c1.073 0 2.07-0.1 2.99-0.3 0.92-0.207 1.72-0.55 2.4-1.03 0.673-0.48 1.207-1.117 1.6-1.91 0.387-0.8 0.58-1.793 0.58-2.98v0c0-0.96-0.13-1.84-0.39-2.64-0.26-0.8-0.647-1.483-1.16-2.05-0.513-0.567-1.143-1.01-1.89-1.33-0.747-0.32-1.617-0.48-2.61-0.48v0c-0.927 0-1.763 0.173-2.51 0.52-0.74 0.34-1.39 0.8-1.95 1.38-0.56 0.573-1.04 1.243-1.44 2.01-0.4 0.767-0.73 1.563-0.99 2.39-0.26 0.833-0.447 1.673-0.56 2.52-0.113 0.847-0.17 1.643-0.17 2.39v0c0 0.133 0 0.263 0 0.39 0 0.133 0.007 0.263 0.02 0.39zM154.32-18.95v0c0 1.16-0.187 2.19-0.56 3.09-0.373 0.907-0.883 1.7-1.53 2.38-0.64 0.687-1.383 1.267-2.23 1.74-0.847 0.467-1.75 0.853-2.71 1.16-0.96 0.3-1.95 0.513-2.97 0.64-1.013 0.133-2 0.2-2.96 0.2v0c-1.22 0-2.427-0.087-3.62-0.26-1.187-0.167-2.357-0.44-3.51-0.82v0c0.18 1.08 0.463 2.103 0.85 3.07 0.393 0.967 0.917 1.813 1.57 2.54 0.647 0.72 1.447 1.293 2.4 1.72 0.953 0.42 2.08 0.63 3.38 0.63v0c0.867 0 1.69-0.13 2.47-0.39 0.78-0.26 1.497-0.627 2.15-1.1 0.647-0.467 1.22-1.027 1.72-1.68 0.493-0.653 0.897-1.377 1.21-2.17v0l3.56 1.32c-0.54 1.28-1.277 2.39-2.21 3.33-0.933 0.933-1.99 1.707-3.17 2.32-1.18 0.607-2.433 1.057-3.76 1.35-1.327 0.293-2.643 0.44-3.95 0.44v0c-2.147 0-4.13-0.36-5.95-1.08-1.827-0.727-3.397-1.74-4.71-3.04-1.32-1.307-2.357-2.863-3.11-4.67-0.747-1.807-1.12-3.783-1.12-5.93v0c0-2.147 0.373-4.123 1.12-5.93 0.753-1.807 1.79-3.363 3.11-4.67 1.313-1.3 2.883-2.313 4.71-3.04 1.82-0.72 3.803-1.08 5.95-1.08v0c1.047 0 2.113 0.073 3.2 0.22 1.093 0.147 2.153 0.377 3.18 0.69 1.02 0.32 1.987 0.733 2.9 1.24 0.913 0.5 1.707 1.12 2.38 1.86 0.68 0.747 1.217 1.607 1.61 2.58 0.4 0.973 0.6 2.087 0.6 3.34zM183.74-9.01v0c0 1.24-0.18 2.34-0.54 3.3-0.353 0.96-0.84 1.793-1.46 2.5-0.62 0.707-1.353 1.3-2.2 1.78-0.847 0.48-1.753 0.867-2.72 1.16-0.967 0.293-1.98 0.507-3.04 0.64-1.06 0.127-2.11 0.19-3.15 0.19v0c-1.4 0-2.637-0.09-3.71-0.27-1.073-0.18-2.1-0.467-3.08-0.86-0.973-0.4-1.943-0.917-2.91-1.55-0.973-0.64-2.053-1.413-3.24-2.32v0l4.81-3.93c0.44 0.827 1.023 1.577 1.75 2.25 0.72 0.68 1.47 1.263 2.25 1.75 0.787 0.487 1.543 0.86 2.27 1.12 0.733 0.26 1.33 0.39 1.79 0.39v0c0.373 0 0.797-0.01 1.27-0.03 0.467-0.027 0.947-0.077 1.44-0.15 0.487-0.073 0.967-0.183 1.44-0.33 0.473-0.147 0.89-0.347 1.25-0.6 0.367-0.253 0.66-0.57 0.88-0.95 0.22-0.38 0.33-0.84 0.33-1.38v0c0-0.553-0.14-1.037-0.42-1.45-0.287-0.413-0.66-0.777-1.12-1.09-0.453-0.307-0.973-0.567-1.56-0.78-0.587-0.213-1.177-0.4-1.77-0.56-0.593-0.16-1.167-0.303-1.72-0.43-0.553-0.12-1.033-0.237-1.44-0.35v0c-0.747-0.213-1.537-0.43-2.37-0.65-0.827-0.22-1.647-0.473-2.46-0.76-0.813-0.28-1.59-0.617-2.33-1.01-0.747-0.387-1.4-0.853-1.96-1.4-0.56-0.547-1.007-1.19-1.34-1.93-0.333-0.74-0.5-1.607-0.5-2.6v0c0-1.827 0.363-3.353 1.09-4.58 0.72-1.227 1.673-2.21 2.86-2.95 1.193-0.74 2.547-1.267 4.06-1.58 1.513-0.307 3.05-0.46 4.61-0.46v0c1.073 0 2.203 0.11 3.39 0.33 1.193 0.22 2.35 0.543 3.47 0.97 1.127 0.433 2.177 0.96 3.15 1.58 0.98 0.62 1.793 1.327 2.44 2.12v0l-4.81 3.96c-0.353-0.98-0.82-1.82-1.4-2.52-0.58-0.7-1.207-1.273-1.88-1.72-0.673-0.447-1.367-0.777-2.08-0.99-0.707-0.207-1.36-0.31-1.96-0.31v0c-0.587 0-1.247 0.023-1.98 0.07-0.733 0.047-1.42 0.183-2.06 0.41-0.647 0.233-1.193 0.58-1.64 1.04-0.447 0.467-0.67 1.107-0.67 1.92v0c0 0.587 0.133 1.087 0.4 1.5 0.273 0.413 0.63 0.77 1.07 1.07 0.433 0.307 0.933 0.56 1.5 0.76 0.56 0.207 1.133 0.387 1.72 0.54 0.587 0.153 1.157 0.287 1.71 0.4 0.553 0.113 1.05 0.237 1.49 0.37v0c0.747 0.207 1.54 0.42 2.38 0.64 0.833 0.22 1.657 0.473 2.47 0.76 0.82 0.287 1.607 0.62 2.36 1 0.76 0.387 1.423 0.857 1.99 1.41 0.567 0.553 1.023 1.2 1.37 1.94 0.34 0.74 0.51 1.613 0.51 2.62z" fill="#ffffff" fill-rule="nonzero" stroke="none" stroke-width="1" stroke-linecap="butt" stroke-linejoin="miter" stroke-miterlimit="10" stroke-dasharray="" stroke-dashoffset="0" font-family="none" font-weight="none" font-size="none" text-anchor="none" style="mix-blend-mode: normal" data-fill-palette-color="quaternary" opacity="1"></path></g></svg></g></svg></g></svg></g></svg></g><g><svg viewBox="0 0 238.43476918787346 220.7259806465603" height="220.7259806465603" width="238.43476918787346"><g><svg xmlns="http://www.w3.org/2000/svg" xmlns:xlink="http://www.w3.org/1999/xlink" version="1.1" x="0" y="0" viewBox="15.334 23.986 433.789 401.57105754675484" enable-background="new 0 0 463.893 438.877" xml:space="preserve" height="220.7259806465603" width="238.43476918787346" class="icon-icon-0" data-fill-palette-color="quaternary" id="icon-0"><path d="M232.272 88.949L79.937 223.837V416.586C79.937 421.565 83.96 425.557 88.938 425.557H184.143V341.047C184.143 336.068 188.137 332.047 193.114 332.047H271.343C276.321 332.047 280.313 336.068 280.313 341.047V425.557H375.548A8.94 8.94 0 0 0 384.52 416.586V223.779zM276.328 277.105H191.232V224.74H276.328z" fill="#ffffff" data-fill-palette-color="quaternary"></path><path d="M79.937 42.699H134.708L134.229 75.137 79.936 124.185z" fill="#ffffff" data-fill-palette-color="quaternary"></path><path d="M231.388 24.746L15.334 216.053 38.092 241.729 232.272 69.777 426.408 241.729 449.123 216.053 233.113 24.746 232.229 23.986z" fill="#ffffff" data-fill-palette-color="quaternary"></path></svg></g></svg></g><g></g></svg></g></svg></g></svg></g></svg></g><defs></defs></svg><rect width="333.90454557049503" height="333.90454557049503" fill="none" stroke="none" visibility="hidden"></rect></g></svg></g></svg>