<svg width="57" height="53" viewBox="0 0 57 53" fill="none" xmlns="http://www.w3.org/2000/svg">
<path d="M55.5516 23.7757L46.9888 15.2128V5.32126C46.9888 3.53274 45.5394 2.08328 43.7483 2.08328C41.9612 2.08328 40.5119 3.53274 40.5119 5.32126V8.73603L34.1362 2.36008C30.984 -0.790434 25.5033 -0.784846 22.3583 2.36578L0.947924 23.7757C-0.315975 25.0421 -0.315975 27.0912 0.947924 28.3557C2.21239 29.6217 4.26552 29.6217 5.52953 28.3557L26.9378 6.94522C27.6352 6.25145 28.8645 6.25145 29.5582 6.94316L50.9701 28.3557C51.6051 28.9887 52.4328 29.3036 53.2604 29.3036C54.0896 29.3036 54.9188 28.9884 55.5518 28.3557C56.8161 27.0913 56.8161 25.0422 55.5516 23.7757Z" fill="white"/>
<path d="M29.3744 13.0913C28.7524 12.4696 27.7452 12.4696 27.125 13.0913L8.29245 31.9183C7.99513 32.2155 7.82656 32.6213 7.82656 33.0447V46.7764C7.82656 49.9987 10.4392 52.6112 13.6613 52.6112H22.9854V38.1714H33.512V52.6112H42.8362C46.0582 52.6112 48.6708 49.9987 48.6708 46.7765V33.0447C48.6708 32.6213 48.5038 32.2155 48.205 31.9183L29.3744 13.0913Z" fill="white"/>
</svg>
