<svg width="229" height="229" viewBox="0 0 229 229" fill="none" xmlns="http://www.w3.org/2000/svg">
<g clip-path="url(#clip0_67_107)">
<path d="M114.5 0C51.2634 0 0 51.2634 0 114.5C0 177.737 51.2634 229 114.5 229C177.737 229 229 177.737 229 114.5C229 51.2634 177.737 0 114.5 0ZM114.5 40.2539C131.058 40.2539 144.481 56.1175 144.481 75.6858C144.481 95.2542 131.058 111.118 114.5 111.118C97.9422 111.118 84.5193 95.2542 84.5193 75.6858C84.5193 56.1175 97.9422 40.2539 114.5 40.2539ZM165.247 179.801H63.7532C58.6643 179.801 54.5387 175.675 54.5387 170.586C54.5387 146.774 81.384 127.471 114.5 127.471C147.616 127.471 174.461 146.774 174.461 170.586C174.461 175.675 170.336 179.801 165.247 179.801Z" fill="white"/>
</g>
<defs>
<clipPath id="clip0_67_107">
<rect width="229" height="229" fill="white"/>
</clipPath>
</defs>
</svg>
